/* XPM */
static char *f9dd8e9c2cf547a0975be530ba9197e6eeyZI3iqN4hvIpu4[] = {
/* columns rows colors chars-per-pixel */
"64 64 20 1 ",
"  c #121014",
". c #1B161A",
"X c #1D1B1E",
"o c #1E1C1F",
"O c #1E1C20",
"+ c #201F22",
"@ c #232028",
"# c #242129",
"$ c #2A2730",
"% c #362C35",
"& c #433444",
"* c #4E4355",
"= c #DD5E6C",
"- c #E1606D",
"; c #FF8D74",
": c #6A6881",
"> c #9797B1",
", c #FFB984",
"< c #C2C5D9",
"1 c #C6CADD",
/* pixels */
">>>>>11111111O1+1O1111111111111111111111111111O1+1O1111111<>>>>>",
"&:::>>>>>>>>>*>*>*>>>>>>>>>>>>>>>>>>>>>>>>>>>>*>*>*>>>>>>>>>:::&",
"&:::>::::::::&:&:&::::::::::::::::::::::::::::&:&:&::::::::>:::&",
"&:::>********X*o*X****************************X*o*X********>:::&",
"&:::>@#####################################################>:::&",
"&:::>%%%%%%%%%%%%%%%%%%%%%%%%%%%%%%%%%%%%%%%%%%%%%%%%%%%%%%>:::&",
"&:::>######################################################>:::&",
"&:::>%%%%%%%%%%%%%%%%%%%%%%%%%%%%%%%%%%%%%%%%%%%%%%%%%%%%%%>:::&",
"&:::>######################################################>:::&",
"&:::>%%%%%%%%%%%%%%%%%%%%%%%%%%%%%%%%%%%%%%%%%%%%%%%%%%%%%%>:::&",
"&:::>######################################################>:::&",
"&:::>%%%%%%%%%%%%%%%%%%%%%%%%%%%%%%%%%%%%%%%%%%%%%%%%%%%%%%>:::&",
"&:::>######################################################>:::&",
"&:::>%%%%%%%%%%%%%%%%%%%%%%%%%%%%%%%%%%%%%%%%%%%%%%%%%%%%%%>:::&",
"&:::>######################################################>:::&",
"&:::>%%%%%%%%%%%%%%%%%%%%%%%%%%%%%%%%%%%%%%%%%%%%%%%%%%%%%%>:::&",
"&:::>######################################################>:::&",
"&:::>%%%%%%%%%%%%%%%%%%%%%%%%%%%%%%%%%%%%%%%%%%%%%%%%%%%%%%>:::&",
"&:::>######################################################>:::&",
"&:::>%%%%%%%%%%%%%%%%%%%%%%%%%%%%%%%%%%%%%%%%%%%%%%%%%%%%%%>:::&",
"&:::>######################################################>:::&",
"&:::>%%%%%%%%%%%%%%%%%%%%%%%%%%%%%%%%%%%%%%%%%%%%%%%%%%%%%%>:::&",
"&:::>##########,,##########,=####,,,,,,,,,,,=##############>:::&",
"&:::>%%%%%%%%%%,;.%%%%%%%%%,=.%%%,;==========.%%%%%%%%%%%%%>:::&",
"&:::>##########,; #########,= ###,=          ,=############>:::&",
"&:::>%%%%%%%%%%,;.%%%%%%%%%,=.%%%,=.%%%%%%%%%,=.%%%%%%%%%%%>:::&",
"&:::>##########,; #########,= ###,= #########,= ###########>:::&",
"&:::>%%%%%%%%%%,;.%%%%%%%%%,=.%%%==.%%%%%%%%%,=.%%%%%%%%%%%>:::&",
"&:::>##########,; #########,= ####  #########,= ###########>:::&",
"&:::>%%%%%%%%%%,;.%%%%%%%%%,=.%%%%%%%%%%%%%%%,=.%%%%%%%%%%%>:::&",
"&:::>##########,; #########,= ###############;= ###########>:::&",
"&:::>%%%%%%%%%%,;.%%%%%%%%%,=.%%%%%%%%%%%%%%%==.%%%%%%%%%%%>:::&",
"&:::>##########,;,,,,,,,,,,;= ###########,,;=   ###########>:::&",
"&:::>%%%%%%%%%%============;=.%%%%%%%%%%%;===.%%%%%%%%%%%%%>:::&",
"&:::>###########           ;= #####,,,,;=     #############>:::&",
"&:::>%%%%%%%%%%%%%%%%%%%%%%;=.%%%%%;=====.%%%%%%%%%%%%%%%%%>:::&",
"&:::>######################;= ###,;       #################>:::&",
"&:::>%%%%%%%%%%%%%%%%%%%%%%;=.%%%,=.%%%%%%%%%%%%%%%%%%%%%%%>:::&",
"&:::>######################;= ###,= #######################>:::&",
"&:::>%%%%%%%%%%%%%%%%%%%%%%;=.%%%,=.%%%%%%%%%%%%%%%%%%%%%%%>:::&",
"&:::>######################;= ###,= #######################>:::&",
"&:::>%%%%%%%%%%%%%%%%%%%%%%;=.%%%,=.%%%%%%%%%%%%%%%%%%%%%%%>:::&",
"&:::>######################;= ###,;,,,,,,,,,,,=############>:::&",
"&:::>%%%%%%%%%%%%%%%%%%%%%%==.%%%-=============.%%%%%%%%%%%>:::&",
"&:::>#######################  ####              ###########>:::&",
"#&&&#%%%%%%%%%%%%%%%%%%%%%%%%%%%%%%%%%%%%%%%%%%%%%%%%%%%%%%#&&&#",
"&:::>######################################################>:::&",
"#&&&#%%%%%%%%%%%%%%%%%%%%%%%%%%%%%%%%%%%%%%%%%%%%%%%%%%%%%%#&&&#",
"&:::>######################################################>:::&",
"#&&&#%%%%%%%%%%%%%%%%%%%%%%%%%%%%%%%%%%%%%%%%%%%%%%%%%%%%%%$&&&#",
"&:::>######################################################>:::&",
"#&&&#%%%%%%%%%%%%%%%%%%%%%%%%%%%%%%%%%%%%%%%%%%%%%%%%%%%%%%#&&&#",
"&:::>######################################################>:::&",
"#&&&#%%%%%%%%%%%%%%%%%%%%%%%%%%%%%%%%%%%%%%%%%%%%%%%%%%%%%%#&&&#",
"&:::>######################################################>:::&",
"#&&&#%%%%%%%%%%%%%%%%%%%%%%%%%%%%%%%%%%%%%%%%%%%%%%%%%%%%%%#&&&#",
"&:::>######################################################>:::&",
"#&&&#%%%%%%%%%%%%%%%%%%%%%%%%%%%%%%%%%%%%%%%%%%%%%%%%%%%%%%#&&&#",
"&:::>######################################################>:::&",
"&:::>>>>>>>>>>>>>>>>>>>>>>>>>>>>>>>>>>>>>>>>>>>>>>>>>>>>>>>>:::&",
"&::::::::::::::::::::::::::::::::::::::::::::::::::::::::::::::&",
"&::::::::::::::::::::::::::::::::::::::::::::::::::::::::::::::&",
"&::::::::::::::::::::::::::::::::::::::::::::::::::::::::::::::&",
"&&&&&&&&&&&&&&&&&&&&&&&&&&&&&&&&&&&&&&&&&&&&&&&&&&&&&&&&&&&&&&&&"
};
