/* XPM */
static char *_33ba8ac30844860ba01d6bd00ca1e68SQ57GMM8aa5dWfrB[] = {
/* columns rows colors chars-per-pixel */
"64 64 82 1 ",
"  c #151417",
". c #1B181E",
"X c #1C1B1E",
"o c #1E1C1F",
"O c #1C1A20",
"+ c #1E1C20",
"@ c #201F22",
"# c #241E24",
"$ c #281C24",
"% c #331F22",
"& c #282127",
"* c #232029",
"= c #242129",
"- c #292228",
"; c #2F222B",
": c #2D242C",
"> c #3B2420",
", c #3D2421",
"< c #3F272B",
"1 c #2A2730",
"2 c #372832",
"3 c #362D35",
"4 c #382832",
"5 c #3B2B36",
"6 c #3C2B36",
"7 c #3D2D38",
"8 c #3D2F3C",
"9 c #472B27",
"0 c #552020",
"q c #4B2F34",
"w c #4D2F34",
"e c #4A3231",
"r c #513532",
"t c #573532",
"y c #5A3631",
"u c #583931",
"i c #602323",
"p c #752626",
"a c #623B2F",
"s c #623C2F",
"d c #643D2F",
"f c #603B30",
"g c #104614",
"h c #104E14",
"j c #0E5E13",
"k c #0F5F14",
"l c #125E17",
"z c #2A4426",
"x c #69402D",
"c c #6C412D",
"v c #6F442C",
"b c #70442C",
"n c #133851",
"m c #133F5B",
"M c #273F47",
"N c #433444",
"B c #124A6E",
"V c #124B70",
"C c #4E4355",
"Z c #A33030",
"A c #A53131",
"S c #AA443C",
"D c #AB483E",
"F c #AB4B40",
"G c #AC4C40",
"H c #0E8315",
"J c #1F8E2E",
"K c #228E31",
"L c #239034",
"P c #249036",
"I c #269238",
"U c #146499",
"Y c #14669C",
"T c #2B70A8",
"R c #2E71A9",
"E c #3272AB",
"W c #3373AC",
"Q c #3474AD",
"! c #6A6881",
"~ c #9797B1",
"^ c #C2C5D9",
"/ c #C6CADD",
/* pixels */
"~~~~~////////+/@/+////////////////////////////+/@/+///////^~~~~~",
"N!!!~~~~~~~~~C~C~C~~~~~~~~~~~~~~~~~~~~~~~~~~~~C~C~C~~~~~~~~~!!!N",
"N!!!~!!!!!!!!N!N!N!!!!!!!!!!!!!!!!!!!!!!!!!!!!N!N!N!!!!!!!!~!!!N",
"N!!!~CCCCCCCCXCoCXCCCCCCCCCCCCCCCCCCCCCCCCCCCCXCoCXCCCCCCCC~!!!N",
"N!!!~XXXX ;<9<99<;XXXXXXXXX ;<9<99<;XXXXXXXXX ;<9<99<;XXXXX~!!!N",
"N!!!~===...4<2<<2.========...4<2<<2O========...4<2<<2.=====~!!!N",
"N!!!~333&&&6w5ww6&33333333&&&6w5ww6-33333333&&&6w5ww6&33333~!!!N",
"N!!!~*==..usxfbvar========..usxfbvae========..usxfbvar=====~!!!N",
"N!!!~333&&6wywyyw633333333&&6wywyyw633333333&&6wywyyw633333~!!!N",
"N!!!~===..6wywyyw6========..6wywyyw6========..6wywyyw6=====~!!!N",
"N!!!~333&&6wywyyw633333333&&6wywyyw633333333&&6wywyyw633333~!!!N",
"N!!!~===..6wywyyw6========..6wywyyw6========..6wywyyw6=====~!!!N",
"N!!!~333&&6wywyyw633333333&&6wywyyw633333333&&6wywyyw633333~!!!N",
"N!!!~===..6wywyyw6========..6wywyyw6========..6wywyyw6=====~!!!N",
"N!!!~333&&6wywyyw333333333&&6wywyyw633333333&&6wywyyw633333~!!!N",
"N!!!~===..6wywyyw6========..6wywyyw6========..6wywyyw6=====~!!!N",
"N!!!~333&&6wywyyw633333333&&6wywyyw633333333&&6wywyyw633333~!!!N",
"N!!!~===..6wywyyw6========..6wywyyw6========..6wywyyw6=====~!!!N",
"N!!!~333&&6wywyyw633333333&&6wywyyw633333333&&6wywyyw633333~!!!N",
"N!!!~===..6wywyyw6========..6wywyyw6========..6wywyyw6=====~!!!N",
"N!!!~333&&6wywyyw333333333&&6wywyyw833333333&&6wywyyw633333~!!!N",
"N!!!~*==...4<2<<2.========...4<2<<2O========...4<2<<2.=====~!!!N",
"N!!!~333&&&6w5ww6&33333333&&&6w5ww6#33333333&&&6w5ww6&33333~!!!N",
"N!!!~===..usxfbvar========..usxfbvae========..usxfbvar=====~!!!N",
"N!!!~333&&6wywyyw333333333&&6wywyyw633333333&&6wywyyw633333~!!!N",
"N!!!~===..6wywyyw6========..6wywyyw6========..6wywyyw6=====~!!!N",
"N!!!~333&&6wywyyw333333333&&6wywyyw633333333&&6wywyyw633333~!!!N",
"N!!!~===..6wywyyw6========..6wywyyw6========..6wywyyw6=====~!!!N",
"N!!!~333&&6wywyyw633333333&&6wywyyw633333333&&6wywyyw633333~!!!N",
"N!!!~===..6PPIIIK6========..6FFGGGS6========..6WWQQQR6=====~!!!N",
"N!!!~333&&LHHHHHHP33333333&&DAAAAAAD33333333&&EYYYYYUE33333~!!!N",
"N!!!~===.IHHyllyHHJ=======.GAAyppyAAS=======.QYYyBByYYT====~!!!N",
"N!!!~333jHH4wHHw5HHj333333pAA4wAAw5AAp333333BYY4wYYw5YYB333~!!!N",
"N!!!~===jHrdhHHhcuHj======pArdiAAicrAp======BYrdmYYmcuYB===~!!!N",
"N!!!~333jHlHHggHHlHj333333pApAA00AApAp333333BYVYYnnYYBYB333~!!!N",
"N!!!~*==jHjjjzzjjjHj======pApppwwpppAp======BYBBBMMBBBYB===~!!!N",
"N!!!~333jH$%hHHh%$Hj333333pA$%iAAi%$Ap333333BY$%mYYm%$YB333~!!!N",
"N!!!~===jHH%>HH,%HHj======pAA%>AA>%AAp======BYY%>YY>%YYB===~!!!N",
"N!!!~333&jHH>HH>HHj3333333&pAA>AA>AAp3333333&BYY>YY>YYB3333~!!!N",
"N!!!~===..kHHHHHHj========..pAZAAAAp========..BYUYYYYB=====~!!!N",
"N!!!~333&&$jjjjjj$33333333&&$pppppp$33333333&&$BBBBBB$33333~!!!N",
"N!!!~===..6%>%>>%6========..6%>%>>%6========..6%>%>>%6=====~!!!N",
"N!!!~333&&6wywyyw633333333&&6wywyyw733333333&&6wywyyw633333~!!!N",
"N!!!~===...4<2<<2.========...4<2<<2O========...4<2<<2.=====~!!!N",
"N!!!~333&&&6w5ww6&33333333&&&6w5ww6:33333333&&&6w5ww6&33333~!!!N",
"=NNN====..usxfbvar========..usxfbvae========..usxfbvar======NNN=",
"N!!!~333&&6wywyyw633333333&&6wywyyw633333333&&6wywyyw633333~!!!N",
"=NNN====..6wywyyw6========..6wywyyw6========..6wywyyw6======NNN=",
"N!!!~333&&6wywyyw633333333&&6wywyyw633333333&&6wywyyw633333~!!!N",
"=NNN====..6wywyyw6========..6wywyyw6========..6wywyyw6=====1NNN=",
"N!!!~333&&6wywyyw633333333&&6wywyyw633333333&&6wywyyw633333~!!!N",
"=NNN====..6wywyyw6========..6wywyyw6========..6wywyyw6======NNN=",
"N!!!~333&&6wywyyw633333333&&6wywyyw633333333&&6wywyyw633333~!!!N",
"=NNN====..6wywyyw6========..6wywyyw5========..6wywyyw6======NNN=",
"N!!!~333&&-4w4qw5&33333333&&-4w4qw5-33333333&&-4w4qw5&33333~!!!N",
"=NNN====..rdfdbbcu========..rdfdbbcr========..rdfdbbcu======NNN=",
"N!!!~333&&6wywyyw633333333&&6wywyyw633333333&&6wywyyw633333~!!!N",
"=NNN====..6wywyyw6========..6wywyyw6========..6wywyyw6======NNN=",
"N!!!~333&&6wywyyw633333333&&6qtqttq533333333&&6wywyyw633333~!!!N",
"N!!!~~~~~~~~~~~~~~~~~~~~~~~~~~~~~~~~~~~~~~~~~~~~~~~~~~~~~~~~!!!N",
"N!!!!!!!!!!!!!!!!!!!!!!!!!!!!!!!!!!!!!!!!!!!!!!!!!!!!!!!!!!!!!!N",
"N!!!!!!!!!!!!!!!!!!!!!!!!!!!!!!!!!!!!!!!!!!!!!!!!!!!!!!!!!!!!!!N",
"N!!!!!!!!!!!!!!!!!!!!!!!!!!!!!!!!!!!!!!!!!!!!!!!!!!!!!!!!!!!!!!N",
"NNNNNNNNNNNNNNNNNNNNNNNNNNNNNNNNNNNNNNNNNNNNNNNNNNNNNNNNNNNNNNNN"
};
