/* XPM */
static char *_d5c9aa25fae488a82cdf1a444d7111dOZw8ig7GFwMNyZ0E[] = {
/* columns rows colors chars-per-pixel */
"64 64 29 1 ",
"  c #1F151E",
". c #1D1B1E",
"X c #1E1C1F",
"o c #1E1C20",
"O c #201F22",
"+ c #232028",
"@ c #242129",
"# c #2A2730",
"$ c #362C35",
"% c #57311C",
"& c #732825",
"* c #7C4425",
"= c #433444",
"- c #443545",
"; c #4E4355",
": c #49475D",
"> c #49485D",
", c #544B5E",
"< c #504E65",
"1 c #882824",
"2 c #9E5B25",
"3 c #A84440",
"4 c #BF7D7A",
"5 c #6A6881",
"6 c #9797B1",
"7 c #C2C5D9",
"8 c #C6CADD",
"9 c #D7D7D7",
"0 c #E6E6E6",
/* pixels */
"6666688888888o8O8o8888888888888888888888888888o8O8o8888888766666",
"=555666666666;6;6;6666666666666666666666666666;6;6;666666666555=",
"=555655555555=5=5=5555555555555555555555555555=5=5=555555556555=",
"=5556;;;;;;;;.;X;.;;;;;;;;=5555555556;;;;;;;;;.;X;.;;;;;;;;6555=",
"=5556+@@@@@@@@@@@@@@@@@@@@=5555555556@@@@@@@@@@@@@@@@@@@@@@6555=",
"=5556$$$$$$$$$$$$$$$$$$$$$=5555555556$$$$$$$$$$$$$$$$$$$$$$6555=",
"=5556@@@@@@@@@@@@@@@@@@@@@@=5555555;@@@@@@@@@@@@@@@@@@@@@@@6555=",
"=5556$$$$$$$$$$$$$$$$$$$$$=5555555556$$$$$$$$$$$$$$$$$$$$$$6555=",
"=5556@@@@@@@@@@@@@@@@@@@@@@=5555555;@@@@@@@@@@@@@@@@@@@@@@@6555=",
"=5556$$$$$$$$$$$$$$$$$$$$$=5555555556$$$$$$$$$$$$$$$$$$$$$$6555=",
"=5556@@@@@@@@@@@@@@@@@@@@@@=5555555;@@@@@@@@@@@@@@@@@@@@@@@6555=",
"=5556$$$$$$$$$$$$$$$$$$$$$=5555555556$$$$$$$$$$$$$$$$$$$$$$6555=",
"=5556@@@@@@@@@@@@@@@@@@@@@@=5555555,@@@@@@@@@@@@@@@@@@@@@@@6555=",
"=5556$$$$$$$$$$$$$$$$$$$$$=5555555556$$$$$$$$$$$$$$$$$$$$$$6555=",
"=5556@@@@@@@@@@@@@@@@@@@@@@=5555555;@@@@@@@@@@@@@@@@@@@@@@@6555=",
"=5556$$$$$$$$$$$$$$$$$$$$$=5555555556$$$$$$$$$$$$$$$$$$$$$$6555=",
"=5556@@@@@@@@@@@@@@@@@@@@@@=5555555;@@@@@@@@@@@@@@@@@@@@@@@6555=",
"=5556$$$$$$$$$$$$$$$$$$$$$=5555555556$$$$$$$$$$$$$$$$$$$$$$6555=",
"=5556@@@@@@@@@@@@@@@@@@@@@@=5555555;@@@@@@@@@@@@@@@@@@@@@@@6555=",
"=5556$$$$$$$$$$$$$$$$$$$$$=5555555556$$$$$$$$$$$$$$$$$$$$$$6555=",
"=5556@@@@@@@@@@@@@@@@@@@@@@=5555555;@@@@@@@@@@@@@@@@@@@@@@@6555=",
"=5556$$$$$$$$$$$$$$$$$$$$$=5555555556$$$$$$$$$$$$$$$$$$$$$$6555=",
"=5556@@@@@@@@@@@@@@@@@@@@@@-55   55;@@@@@@@@@@@@@@@@@@@@@@@6555=",
"=5556$$$$$$$$$$$$$$$$$$$$$=55 2%* 556$$$$$$$$$$$$$$$$$$$$$$6555=",
"=5556@@@@@@@@@@@@@@@@@@@@@= 55 5 5556@@@@@@@@@@@@@@@@@@@@@@6555=",
"=5556$$$$$$$$$$$$$$$$$$$$$ 5   55   6$$$$$$$$$$$$$$$$$$$$$$6555=",
"=5556@@@@@@@@@@@@@@@@@@@@@= 55 5 001 @@@@@@@@@@@@@@@@@@@@@@6555=",
"=5556$$$$$$$$$$$$$$$$$$$$$=55  < 011 $$$$$$$$$$$$$$$$$$$$$$6555=",
"=5556@@@@@@@@@@@@@@@@@@@@@=5 4&& 099 @@@@@@@@@@@@@@@@@@@@@@6555=",
"=5556$$$$$$$$$$$$$$$$$$$$$= 4333&   6$$$$$$$$$$$$$$$$$$$$$$6555=",
"=5556@@@@@@@@@@@@@@@@@@@@@= 43333&& 6@@@@@@@@@@@@@@@@@@@@@@6555=",
"=5556$$$$$$$$$$$$$$$$$$$$$= 433333& 6$$$$$$$$$$$$$$$$$$$$$$6555=",
"=5556@@@@@@@@@@@@@@@@@@@@@= 434433& 6@@@@@@@@@@@@@@@@@@@@@@6555=",
"=5556$$$$$$$$$$$$$$$$$$$$$= 434433& 6$$$$$$$$$$$$$$$$$$$$$$6555=",
"=5556@@@@@@@@@@@@@@@@@@@@@= 434433& 6@@@@@@@@@@@@@@@@@@@@@@6555=",
"=5556$$$$$$$$$$$$$$$$$$$$$= 434433& 6$$$$$$$$$$$$$$$$$$$$$$6555=",
"=5556@@@@@@@@@@@@@@@@@@@@@= 434433& 6@@@@@@@@@@@@@@@@@@@@@@6555=",
"=5556$$$$$$$$$$$$$$$$$$$$$= 433333& 6$$$$$$$$$$$$$$$$$$$$$$6555=",
"=5556@@@@@@@@@@@@@@@@@@@@@= 434433& 6@@@@@@@@@@@@@@@@@@@@@@6555=",
"=5556$$$$$$$$$$$$$$$$$$$$$= 433333& 6$$$$$$$$$$$$$$$$$$$$$$6555=",
"=5556@@@@@@@@@@@@@@@@@@@@@= 443333& 6@@@@@@@@@@@@@@@@@@@@@@6555=",
"=5556$$$$$$$$$$$$$$$$$$$$$= 443333& 6$$$$$$$$$$$$$$$$$$$$$$6555=",
"=5556@@@@@@@@@@@@@@@@@@@@@= 43333&& 6@@@@@@@@@@@@@@@@@@@@@@6555=",
"=5556$$$$$$$$$$$$$$$$$$$$$= 43333&& 6$$$$$$$$$$$$$$$$$$$$$$6555=",
"=5556@@@@@@@@@@@@@@@@@@@@@=: 4&&&& :6@@@@@@@@@@@@@@@@@@@@@@6555=",
"@===@$$$$$$$$$$$$$$$$$$$$$=5:     :56$$$$$$$$$$$$$$$$$$$$$$@===@",
"=5556@@@@@@@@@@@@@@@@@@@@@=55>::::556@@@@@@@@@@@@@@@@@@@@@@6555=",
"@===@$$$$$$$$$$$$$$$$$$$$$=5555555556$$$$$$$$$$$$$$$$$$$$$$@===@",
"=5556@@@@@@@@@@@@@@@@@@@@@=5555555556@@@@@@@@@@@@@@@@@@@@@@6555=",
"@===@$$$$$$$$$$$$$$$$$$$$$=5555555556$$$$$$$$$$$$$$$$$$$$$$#===@",
"=5556@@@@@@@@@@@@@@@@@@@@@=5555555556@@@@@@@@@@@@@@@@@@@@@@6555=",
"@===@$$$$$$$$$$$$$$$$$$$$$=5555555556$$$$$$$$$$$$$$$$$$$$$$@===@",
"=5556@@@@@@@@@@@@@@@@@@@@@=5555555556@@@@@@@@@@@@@@@@@@@@@@6555=",
"@===@$$$$$$$$$$$$$$$$$$$$$=5555555556$$$$$$$$$$$$$$$$$$$$$$@===@",
"=5556@@@@@@@@@@@@@@@@@@@@@=5555555556@@@@@@@@@@@@@@@@@@@@@@6555=",
"@===@$$$$$$$$$$$$$$$$$$$$$=5555555556$$$$$$$$$$$$$$$$$$$$$$@===@",
"=5556@@@@@@@@@@@@@@@@@@@@@=5555555556@@@@@@@@@@@@@@@@@@@@@@6555=",
"@===@$$$$$$$$$$$$$$$$$$$$$=5555555556$$$$$$$$$$$$$$$$$$$$$$@===@",
"=5556@@@@@@@@@@@@@@@@@@@@@=5555555556@@@@@@@@@@@@@@@@@@@@@@6555=",
"=55566666666666666666666666666666666666666666666666666666666555=",
"=55555555555555555555555555555555555555555555555555555555555555=",
"=55555555555555555555555555555555555555555555555555555555555555=",
"=55555555555555555555555555555555555555555555555555555555555555=",
"================================================================"
};
