/* XPM */
static char *_dd8690d02cc4acdf00f849f45a1ccc9m158hT1vyb5WpRPW[] = {
/* columns rows colors chars-per-pixel */
"64 64 76 1 ",
"  c #111012",
". c #1B181E",
"X c #1D1B1E",
"o c #1E1C1F",
"O c #0A1D2C",
"+ c #1F1A21",
"@ c #1F1D21",
"# c #201F22",
"$ c #07253B",
"% c #07253C",
"& c #082438",
"* c #08263C",
"= c #282127",
"- c #232029",
"; c #242129",
": c #282128",
"> c #2E262E",
", c #30272F",
"< c #3F272B",
"1 c #2A2730",
"2 c #342932",
"3 c #322C33",
"4 c #342C34",
"5 c #392933",
"6 c #392934",
"7 c #3C2B36",
"8 c #392D38",
"9 c #42292B",
"0 c #502525",
"q c #492E33",
"w c #4B2F34",
"e c #4D2F34",
"r c #503532",
"t c #543431",
"y c #5A3631",
"u c #583931",
"i c #622B2B",
"p c #623B2F",
"a c #623C2F",
"s c #653D2F",
"d c #603A30",
"f c #763231",
"g c #69402D",
"h c #6C412D",
"j c #6F442C",
"k c #70442C",
"l c #403241",
"z c #433443",
"x c #433444",
"c c #443545",
"v c #423A47",
"b c #4D404F",
"n c #4D4552",
"m c #4E4355",
"M c #46425F",
"N c #474261",
"B c #5E4F63",
"V c #5E5063",
"C c #626177",
"Z c #813634",
"A c #C7AC48",
"S c #C9AE49",
"D c #DDBE4E",
"F c #6A6881",
"G c #8A8AA2",
"H c #9797B1",
"J c #BEDCF2",
"K c #BEDFF7",
"L c #C4C5C8",
"P c #C7C9CB",
"I c #C8C9CC",
"U c #C2C5D9",
"Y c #C6CADD",
"T c #FFFFED",
"R c #FEFBFF",
"E c white",
/* pixels */
"HHHHHUYYYYYYY@Y#Y@YYYYYYYYYYYYYYYYYYYYYYYYYYYY@Y#Y@YYYYYYYYHHHHH",
"xFFFHHHHHHHHHmHmHmHHHHHHHHHHHHHHHHHHHHHHHHHHHHmHmHmHHHHHHHHHFFFx",
"xFFFHFFFFFFFFxFxFxFFFFFFFFFFFFFFFFFFFFFFFFFFFFxFxFxFFFFFFFFHFFFx",
"xFFFHmmmmmmmmXmomXmmmmmmmmmmmmmmmmmmmmmmmmmmmmXmomXmmmmmmmmHFFFx",
"8vvvn,,,,,25555552>,,,,,,,,,,,,,,,,,,,,,,,,,,,25555552>,,,,nvvv8",
"lCCCG344446qttqtq6::444444444444444444444444446qttqtq6::444GCCCl",
";xxx;;;;;;7eyyeye7..;;;;;;;;;;;;;;;;;;;;;;;;;;7eyyeye7..;;;;xxx;",
"xFFFH444447eyyeye7==444444444444444444444444447eyyeye7==444HFFFx",
";xxx;;;;;;uhkksdsr..;;;;;;;;;;;;;;;;;;;;;;;;;;uhkksdsr..;;;;xxx;",
"xFFFH44444=6ew5e5:==44444444444444444444444444=6ew5e5:==444HFFFx",
";xxx;;;;;;7eyyeye7..;;;;;;;;;;;;;;;;;;;;;;;;;;7eyyeye7..;;;;xxx;",
"xFFFH444447eyyeye7==444444444444444444444444447eyyeye7==444HFFFx",
";xxx;;;;;;7eyyeye7..;;;;;;;;;;;;;;;;;;;;;;;;;;7eyyeye7..;;;;xxx;",
"xFFFH444447eyyeye7==444444444444444444444444447eyyeye7==444HFFFx",
";xxx1;;;;;7eyyeye7..;;;;;;;;;;;;;;;;;;;;;;;;;;7eyyeye7..;;;;xxx;",
"xFFFH444447eyyeye7==444444444444444444444444447eyyeye7==444HFFFx",
";xxx;;;;;;7eyyeye7..;;;;;;;;;;;;;;;;;;;;;;;;;;7eyyeye7..;;;;xxx;",
"xFFFH444447eyyeye7==444444444444444444444444447eyyeye7==444HFFFx",
";xxx;;;;;;rpjkdgau..;;;;;VVVVVVVVVVVVVV;;;;;;;rpjkdgau..;;;;xxx;",
"xFFFH44444=7ee6e7===4444xbbbbbbbbbbbbbbV444444=7ee6e7===444HFFFx",
"xFFFH;;;;;.2<<2<5...;;;V.xbbbbbbbbbbbbx.B;;;;;.2<<2<5...;;;HFFFx",
"xFFFH444447eyyeye7==44xbV.xxxxxxxxxxxx.xbV44447eyyeye7==444HFFFx",
"xFFFH;;;;;7eyyeye7..;;xbbV N   %      xbbV..;;7eyyeye7..;;;HFFFx",
"xFFFH444447eyyeye7==44xbbV            xbbV::447eyyeye7==444HFFFx",
"xFFFH;;;;;7eyyeye7..;;xbbV&   INN   D xbbV..;;7eyyeye7..;;;HFFFx",
"xFFFH444447eyyeye7==44xbbV   I NN     xbbV::447eyyeye7==444HFFFx",
"xFFFH;;;;;7eyyeye7..;;xbbV  P%    %   xbbV..;;7eyyeye7..;;;HFFFx",
"xFFFH444447eyyeye7==44xbbV L  i       xbbV::447eyyeye7==444HFFFx",
"xFFFH;;;;;7eyyeye7..;;xbbV   fZ0  II* xbbV..;;7eyyeye7..;;-HFFFx",
"xFFFH444447eyyeye7==44xbbV  % f  KII  xbbV::447eyyeye7==444HFFFx",
"xFFFH;;;;;uhkksdsr..;;xbbV      III   xbbV..;;uhkksdsr..;;;HFFFx",
"xFFFH44444=6ew5e5===44xbbV  D  III    xbbV::44=6ew5e5===444HFFFx",
"xFFFH;;;;;7eyyeye7..;;xbbVM   KII  %  xbbV..;;7eyyeye7..;;;HFFFx",
"xFFFH444447eyyeye7==44xbbV   III      xbbV::447eyyeye7==444HFFFx",
"xFFFH;;;;;7eyyeye7..;;xbbV OIII       xbbV..;;7eyyeye7..;;;HFFFx",
"xFFFH444447eyyeye7==44xbbV III  N     xbbV::447eyyeye7==444HFFFx",
"xFFFH;;;;;7eyyeye7..;;xbbV II         xbbV..;;7eyyeye7..;;;HFFFx",
"xFFFH444447eyyeye7==44xbbV   *        xbbV::447eyyeye7==444HFFFx",
"xFFFH;;;;;7eyyeye7..;;xbbV         IRNxbbV..;;7eyyeye7..;;;HFFFx",
"xFFFH444447eyyeye7==44xbbV        JIRNxbbV::447eyyeye7==444HFFFx",
"xFFFH;;;;;rpjkdgau..;;xbbV    %  IIINNxbbV..;;rpjkdgau..;;;HFFFx",
"xFFFH44444=7ee6e7===44xbbV $    III   xbbV::44=7ee6e7===444HFFFx",
"xFFFH;;;;;.2<<2<5...;;xbbV     IKI    xbbV..;;.2<<2<5...;;-HFFFx",
"xFFFH444447eyyeye7==44xbbV NN III A K xbbV::447eyyeye7==444HFFFx",
"xFFFH;;;;;7eyyeye7..;;xbbV NNIII SDT  xbbV..;;7eyyeye7..;;;HFFFx",
"xFFFH444447eyyeye7==44xbbV   IP%  E   xbbV::447eyyeye7==444HFFFx",
"xFFFH;;;;;7eyyeye7..;;xbbV       I   NxbbV..;;7eyyeye7..;;;HFFFx",
"xFFFH444447eyyeye7==44xbbx  %         xbbV::447eyyeye7==444HFFFx",
"xFFFH;;;;;7eyyeye7..;;xbx VVVVVVVVVVVV xbV..;;7eyyeye7..;;;HFFFx",
"xFFFH444447eyyeye7==44:x xbbbbbbbbbbbbV x:::447eyyeye7==444HFFFx",
"xFFFH;;;;;7eyyeye7..;;;.xbbbbbbbbbbbbbbV...;;;7eyyeye7..;;;HFFFx",
"xFFFH444447eyyeye7==4444:cxxxxxxxxxxxxx:::44447eyyeye7==444HFFFx",
"xFFFH;;;;;7eyyeye7X.;;;;;..X..X..........;;;;;7eyyeye7..;;;HFFFx",
"xFFFH444447eyyeye7==444444::::::::::::::4444447eyyeye7==444HFFFx",
"xFFFH;;;;;7eyyeye7..;;;;;;;;;;;;;;;;;;;;;;;;;;7eyyeye7..;;;HFFFx",
"xFFFH444447eyyeye7==444444444444444444444444447eyyeye7==444HFFFx",
"xFFFH;;;;;rpjkdgau..;;;;;;;;;;;;;;;;;;;;;;;;;;rpjkdgau..;;-HFFFx",
"xFFFH44444=7ee6e7===44444444444444444444444444=7ee6e7===444HFFFx",
"zFFFH;;;;;+599595+XX;;;;;;;;;;;;;;;;;;;;;;;;;;+599595+XX;;;HFFFz",
"xFFFHHHHHHHHHHHHHHHHHHHHHHHHHHHHHHHHHHHHHHHHHHHHHHHHHHHHHHHHFFFx",
"xFFFFFFFFFFFFFFFFFFFFFFFFFFFFFFFFFFFFFFFFFFFFFFFFFFFFFFFFFFFFFFx",
"xFFFFFFFFFFFFFFFFFFFFFFFFFFFFFFFFFFFFFFFFFFFFFFFFFFFFFFFFFFFFFFx",
"xFFFFFFFFFFFFFFFFFFFFFFFFFFFFFFFFFFFFFFFFFFFFFFFFFFFFFFFFFFFFFFx",
"xxxxxxxxxxxxxxxxxxxxxxxxccxxxxxxxcxxxxxxccxxxxxxxxxxxxxxxxxxxxxx"
};
